<svg xmlns="http://www.w3.org/2000/svg" width="65.995" height="50.169" viewBox="0 0 65.995 50.169">
  <path id="redhat-brands" d="M43.354,90.641c4.272,0,10.453-.881,10.453-5.966.028-.856.109-.231-2.651-12.217-.586-2.431-1.1-3.534-5.371-5.668C42.473,65.1,35.259,62.3,33.125,62.3c-1.988,0-2.564,2.56-4.934,2.56-2.285,0-3.975-1.912-6.109-1.912-2.049,0-3.384,1.4-4.415,4.268-3.491,9.844-3.336,9.428-3.316,9.936,0,3.148,12.395,13.47,29,13.47m11.105-3.881a16.969,16.969,0,0,1,.59,3.459c0,4.781-5.374,7.434-12.44,7.434-15.962.01-29.947-9.349-29.947-15.529a6.29,6.29,0,0,1,.515-2.5C7.434,79.889,0,80.914,0,87.477c0,10.748,25.469,23.992,45.635,23.992,15.46,0,19.36-6.992,19.36-12.514,0-4.343-3.756-9.273-10.527-12.217" transform="translate(0.5 -61.8)" fill="none" stroke="#101010" stroke-width="1"/>
</svg>
