<svg xmlns="http://www.w3.org/2000/svg" width="41.588" height="48.249" viewBox="0 0 41.588 48.249"><defs><style>.a{fill:#fff;}.a,.b{stroke:#101010;stroke-linecap:round;stroke-linejoin:round;}.b{fill:none;}</style></defs><g transform="translate(3894.897 -268.63)"><g transform="translate(-3877.852 291.307)"><g transform="translate(0 1.491)"><path class="a" d="M-3882.83,286.9a3.5,3.5,0,0,1-3.749-3.182,3.5,3.5,0,0,1,3.749-3.184,3.5,3.5,0,0,1,3.747,3.184" transform="translate(3886.579 -280.53)"/><path class="a" d="M-3882.83,284a3.5,3.5,0,0,1,3.747,3.182,3.5,3.5,0,0,1-3.747,3.184,3.5,3.5,0,0,1-3.749-3.184" transform="translate(3886.579 -277.632)"/></g><line class="b" y2="1.074" transform="translate(3.749 14.527)"/><line class="b" y2="1.192" transform="translate(3.749)"/><line class="b" y2="13.657" transform="translate(3.749 1.078)"/></g><g transform="translate(-3894.397 269.13)"><path class="b" d="M-3856.145,296.113a33.883,33.883,0,0,0-5.108-8.192,38.082,38.082,0,0,0-6.544-6.218l5.011-9.291a1.159,1.159,0,0,0-.216-1.4,5.868,5.868,0,0,0-4.2-1.885,9.847,9.847,0,0,0-3.812,1,7.231,7.231,0,0,1-2.4.716,1.469,1.469,0,0,1-.561-.1,17.476,17.476,0,0,0-5.874-1.385,7.963,7.963,0,0,0-5.914,2.77,1.187,1.187,0,0,0-.138,1.474l5.4,8.163a38.8,38.8,0,0,0-6.455,6.148,34.118,34.118,0,0,0-5.106,8.192,27.87,27.87,0,0,0-2.338,11.121,9.16,9.16,0,0,0,9.145,9.145h22.3a9.161,9.161,0,0,0,9.146-9.145A27.868,27.868,0,0,0-3856.145,296.113Z" transform="translate(3894.397 -269.13)"/><line class="b" x2="11.33" transform="translate(14.583 12.642)"/></g></g></svg>