<svg xmlns="http://www.w3.org/2000/svg" width="55.042" height="64" viewBox="0 0 55.042 64"><defs><style>.a{fill:#101010;}</style></defs><g transform="translate(-484.225 -215.302)"><path class="a" d="M539.267,222.193l-.861-.172c-2.153,8.355-8.7,14.471-10.767,16.194l-.689-6.2-6.891.6c.344-3.532,1.809-8.872,5.771-16.969l-.775-.345c-3.962,8.183-5.513,13.7-5.857,17.4l-12.834,1.12h-.172l-21.965,26.616L507.051,279.3l21.879-26.444.086-.172-1.378-13.351C529.016,238.128,536.855,231.5,539.267,222.193Zm-16.366,18c0,.086-.086.086-.086.172a2.229,2.229,0,0,1-1.464.775,1.736,1.736,0,0,1-1.55-.517,2.174,2.174,0,0,1-.345-3.015l.258-.258a10.1,10.1,0,0,0,.431.948A4.787,4.787,0,0,0,522.9,240.2Zm-2.326-3.187a1.093,1.093,0,0,1,.517-.086,2.112,2.112,0,0,1,1.378.517,2.229,2.229,0,0,1,.775,1.464v.517a3.309,3.309,0,0,1-2.24-1.55A4.022,4.022,0,0,1,520.575,237.009Zm7.666,15.332-21.19,25.669-21.534-17.744,21.19-25.669,12.49-1.12a14.526,14.526,0,0,0,.258,3.015,2.323,2.323,0,0,0-.689.6,3.017,3.017,0,0,0,2.326,4.91h.258a2.955,2.955,0,0,0,2.67-3.187,2.616,2.616,0,0,0-1.12-1.981,2.937,2.937,0,0,0-2.756-.6,12.482,12.482,0,0,1-.258-2.756l6.2-.517Z" transform="translate(0 0)"/><path class="a" d="M513.892,255.914l1.206-1.637-1.034-.775-1.206,1.723c-1.723-.861-3.532-.6-4.479.861-1.034,1.464-.6,3.015.6,4.91.861,1.378,1.12,2.5.431,3.359-.689.948-1.981,1.034-3.187.172a5.7,5.7,0,0,1-1.9-2.5l-1.206.861a6.172,6.172,0,0,0,1.981,2.67l-1.206,1.723,1.034.775,1.292-1.723a3.685,3.685,0,0,0,4.738-.861c1.12-1.464.861-3.015-.345-5-1.034-1.637-1.292-2.584-.689-3.445a1.89,1.89,0,0,1,2.842-.172,5.6,5.6,0,0,1,1.723,2.153l1.206-.775A6.116,6.116,0,0,0,513.892,255.914Z" transform="translate(-2.62 -5.296)"/></g></svg>